,
  Hottest scene tracker on the net !!!   http://www.scenetime.com
 
    seed back for speed


 



...................................NFO:.................................................                                             
                               
                                 
                                      
                                      
                                       
    CoaX!<CPH>                         
                               
                         
                            
          
    Team FiCO <Final Coalition> 2k8 Presents:    
    

A.Woman.A.Gun.And.A.Noodle.Shop.2009.DVDRip.XviD-FiCO 
http://www.imdb.com/title/tt1428556
Subtitles: English Spanish Portugues French
Date: 2011.02

Director: Yimou Zhang
Genre: Drama 
Plot: The owner of a Chinese noodle shop's scheme to murder his adulterous wife 
and her lover goes awry. 

Cast
Credited cast:
Honglei Sun 	Honglei Sun 	... 	
Zhang
Xiao Shen-Yang 	Xiao Shen-Yang 	... 	
Li
Ni Yan 	Ni Yan 	... 	
Wang's wife
Dahong Ni 	Dahong Ni 	... 	
Wang
Ye Cheng 	Ye Cheng 	... 	
Zhao
Mao Mao 	Mao Mao 	... 	
Chen
Benshan Zhao 	Benshan Zhao 	... 	
The Captain
Rest of cast listed alphabetically:
Julien Gaudfroy 	Julien Gaudfroy 	... 	
Persian trader
Xiaojuan Wang 	Xiaojuan Wang 		
Full cast and crew  

Stats:
General
Format                           : AVI
Format/Info                      : Audio Video Interleave
File size                        : 696 MiB
Duration                         : 1h 30mn
Overall bit rate                 : 1 081 Kbps
Writing application              : VirtualDubMod 1.5.10.2 (build 2542/release)
Writing library                  : VirtualDubMod build 2542/release

Video
ID                               : 0
Format                           : MPEG-4 Visual
Format profile                   : Advanced Simple@L5
Format settings, BVOP            : Yes
Format settings, QPel            : No
Format settings, GMC             : No warppoints
Format settings, Matrix          : Default (H.263)
Codec ID                         : XVID
Codec ID/Hint                    : XviD
Duration                         : 1h 30mn
Bit rate                         : 687 Kbps
Width                            : 608 pixels
Height                           : 256 pixels
Display aspect ratio             : 2.35:1
Frame rate                       : 23.976 fps
Resolution                       : 8 bits
Colorimetry                      : 4:2:0
Scan type                        : Progressive
Bits/(Pixel*Frame)               : 0.184
Stream size                      : 443 MiB (64%)
Writing library                  : XviD 1.2.1 (UTC 2008-12-04)

Audio
ID                               : 1
Format                           : AC-3
Format/Info                      : Audio Coding 3
Format_Settings_ModeExtension    : CM (complete main)
Codec ID                         : 2000
Duration                         : 1h 30mn
Bit rate mode                    : Constant
Bit rate                         : 384 Kbps
Channel(s)                       : 6 channels
Channel positions                : Front: L C R, Side: L R, LFE
Sampling rate                    : 48.0 KHz
Stream size                      : 247 MiB (36%)
Alignment                        : Split accross interleaves
Interleave, duration             : 42 ms (1.00 video frame)
Interleave, preload duration     : 500 ms




Release notes:
enjoy!


                                                                     
                                                             
                                                               
                                                               
                       
      
              Greetz from Team FiCO:               
              
                                                             
                                                             
           BLooDWeiSeR,CULTXviD,SiCK,DoNE,LAP,TH30R1STS              
                                                                             
               WinBeta, DvF, WASTE, BERC, KALEVALA, Jiggly                   
                                                                             
                                                             
                                       
                             
                      
                  
           
            
                    
                  
                
                            
                                        
                                        
                                            
                                                    
                                                              
                      you know where to find us...                     
                        
   NFO By: CoaXCable/CoolPHat <#CPH>